PathFileType	4	(X/Y/Z)	50_1_15_p1_0-258_filt_butterworth.trc
DataRate	CameraRate	NumFrames	NumMarkers	Units	OrigDataRate	OrigDataStartFrame	OrigNumFrames
60.0	60.0	7	27	m	60.0	32	258
Frame#	Time	RHip			RKnee			RAnkle			RBigToe			RSmallToe			RHeel			LHip			LKnee			LAnkle			LBigToe			LSmallToe			LHeel			Neck			Head			Nose			RShoulder			RElbow			RWrist			RThumb			RIndex			RPinky			LShoulder			LElbow			LWrist			LThumb			LIndex			LPinky			
		X1	Y1	Z1	X2	Y2	Z2	X3	Y3	Z3	X4	Y4	Z4	X5	Y5	Z5	X6	Y6	Z6	X7	Y7	Z7	X8	Y8	Z8	X9	Y9	Z9	X10	Y10	Z10	X11	Y11	Z11	X12	Y12	Z12	X13	Y13	Z13	X14	Y14	Z14	X15	Y15	Z15	X16	Y16	Z16	X17	Y17	Z17	X18	Y18	Z18	X19	Y19	Z19	X20	Y20	Z20	X21	Y21	Z21	X22	Y22	Z22	X23	Y23	Z23	X24	Y24	Z24	X25	Y25	Z25	X26	Y26	Z26	X27	Y27	Z27	
32	0.5333333333333333	0.31697818699136715	0.7204323713086771	0.5338286448583093	0.27944288402195805	0.8352183844275893	0.9499540922161429	0.30132553939167955	1.0046177802828684	1.3631276384351498	0.25639778858877	0.8468740726433333	1.4144012886781439	0.3096491017915545	0.8636083576488519	1.4194706619606596	0.2798530821859089	1.129920168826704	1.4278373922108014	0.0973339059831288	0.7381037497309041	0.5413864269392258	0.10824979729988883	0.8806827351466938	0.9442957126201864	0.08646801828854543	1.027370480285994	1.3649397165734045	0.1115593878647526	0.8476146174371284	1.3961621020048856	0.049998011906678574	0.8636547320249037	1.396033950793674	0.09416188190785585	1.0900336012006644	1.4179627658754514	0.20429180798129537	0.5748819301268984	-0.031082870785065716	0.20903459745414196	0.4326063742084263	-0.26585140108467525	0.19169069300796318	0.39545247426026087	-0.11564815917238969	0.3562044969902019	0.5694622234320448	0.05506122799677456	0.40013803375247736	0.5681872742402655	0.3138547659343523	0.2440543942830152	0.5426558775599519	0.48792155012127153	0.20110445690043904	0.557412881577115	0.5869142534247531	0.18865527457033057	0.5718512797846141	0.5920244140064095	0.18140310478687255	0.5672344529212365	0.5888270641436997	0.05973364670507252	0.6272763369752858	0.044102474082376504	0.02090446402205644	0.6140654047584553	0.2908478776283407	0.14304527629441494	0.5487428847187914	0.49691166153933586	0.22287629840601234	0.5135782462635732	0.5460516620659326	0.22388031135039238	0.5129543514826151	0.5835263108394616	0.18655556426262052	0.54926806870662	0.5928913016069844
33	0.55	0.31704541076355686	0.7204454402393722	0.5352585300352545	0.2779022576281038	0.8314860660984293	0.9509510460086108	0.3013235389357781	1.0046129752400599	1.3631128553165872	0.2563832557204638	0.8467878107501614	1.4143755199235537	0.30972319975370965	0.8634709958631586	1.4199004767363697	0.2798524264422129	1.129938143284957	1.4277998641537146	0.09746712480901906	0.7382153541693799	0.5420361162818591	0.10821496896319283	0.8818007436700741	0.947056712450935	0.08650914019608832	1.027710240477542	1.364897099767884	0.11144851905831665	0.8477813174895938	1.3961377438358058	0.049999084521036644	0.8638458009772058	1.3959837997082842	0.09458670711130975	1.0903302250489393	1.417890020107379	0.20422345340759893	0.5752371318304206	-0.031164313652655724	0.20909402181179343	0.4326067846736971	-0.26588551841599584	0.1917067292521753	0.3954461643116401	-0.1157125202594324	0.3561056273670211	0.5691126688845455	0.05513041456370055	0.4036966164483323	0.5658754396949295	0.31506808069623915	0.24512926887461287	0.5347055227277389	0.48509173570191383	0.20049095764672875	0.5580829342102367	0.5851101724201917	0.18939572008839067	0.5716593113720988	0.5912231588814932	0.18277545055053307	0.5627285599967013	0.5878976161119944	0.06109719878681283	0.6279665490931036	0.04402403554288122	0.01955375733307307	0.6150165516156284	0.2909796135048218	0.14394063659706938	0.5377567278367142	0.49563342299714874	0.22595097390273633	0.503462408324544	0.5419224489249029	0.22633866018387844	0.502291530024235	0.5802781667966916	0.18706894147153627	0.5470190614747081	0.5924149206242069
34	0.5666666666666667	0.3170598307131124	0.72046338745542	0.5367583094571423	0.27724701925597817	0.8307821531684254	0.9526005139366999	0.301317059351589	1.004624243094152	1.3631159701534155	0.25609229295110314	0.8455673631694468	1.4143573660552322	0.30989435908510843	0.8634550787866135	1.421061929210057	0.2798538809090859	1.1299766520353827	1.4277339156638955	0.09783457824903478	0.7380374848230056	0.5421003046795061	0.10878485258541296	0.8816410017787	0.9500451312663567	0.08652099909573649	1.027985746583472	1.3649445824376938	0.11075184347413083	0.8479469260961986	1.3961018594086925	0.050037622525286554	0.8638503552015933	1.3959120390390347	0.09452054440731802	1.0906196239014818	1.4179123765729018	0.20422416415849076	0.5752081532559304	-0.031196975986615468	0.20909105243822704	0.432597222609251	-0.2659595896530705	0.19125081294247043	0.39525480190653317	-0.11602317676644815	0.35592669384634157	0.5686034566336085	0.055482091920415436	0.4081125510154138	0.5668198978991523	0.3155814906274596	0.24592370629597718	0.5239854806779308	0.48152484922385685	0.19974212200824415	0.5532491254148588	0.5827305556231237	0.1881289458009004	0.5696974484327868	0.5898386272816113	0.18377715947596754	0.558802126606759	0.5865213693663395	0.0621329853295503	0.62851796898212	0.044008171534707	0.017275939751203125	0.6150171667265211	0.2916678114574213	0.14489579779181475	0.5271874221322124	0.4943009322170287	0.22915020350525192	0.49175312774588603	0.5381272487726367	0.2293602899487738	0.4891330712844103	0.5762447446480151	0.18751100933283413	0.5471831194161395	0.5921880944731444
35	0.5833333333333334	0.3170631451979642	0.7207015464909586	0.5389596759708908	0.2777663103074972	0.8332541796065196	0.9546280150996205	0.30130348421928616	1.0046412173319754	1.3631470991665102	0.2553129007471887	0.8424852567979801	1.4143405733571712	0.3100201035858843	0.8636045206597929	1.4226159751701055	0.2798718177645645	1.1300596813404682	1.427741618331815	0.09879564586721104	0.7381309664356968	0.5420909824501053	0.11023052555731397	0.8789140601360541	0.9523018953629708	0.08652277204976506	1.0279958148417676	1.3650132072438497	0.10930947702892765	0.8479396889255115	1.396068402483377	0.050040862436105234	0.8638122857792923	1.3958851977744935	0.09439689437077042	1.0909341531366452	1.417954743349172	0.20467048430009765	0.5738572483226746	-0.031046849782541852	0.20904124415838204	0.43259119337422736	-0.26596260335318667	0.1901085648726386	0.39477286665112465	-0.11673714464712334	0.3558352887604056	0.56839371106756	0.05630997208458807	0.41354940860110007	0.5716617378380725	0.3154242310046183	0.24648338312762097	0.5143744208697435	0.47720845329642314	0.19983886201213846	0.5439065937926307	0.5802200632475907	0.18471822389978998	0.5644800518149573	0.5878038055884153	0.1837935225320472	0.5553283254489416	0.5844796608210905	0.062555436113487	0.6287899831078256	0.04404412476079265	0.015306890888175814	0.6149142495378084	0.29285812354671836	0.14567911184482213	0.5143099802969882	0.4924524487531663	0.23168441401917914	0.4799389799952524	0.534499139278409	0.23228505637025965	0.4769106863367312	0.5720564410068906	0.18799693132855144	0.5488804721874878	0.5920720294947323
36	0.6	0.3170271854937561	0.7213916148012258	0.5420339783407645	0.27936721757755995	0.838173060187505	0.9564672497182715	0.3012870872485266	1.0046492230495963	1.3631972168039244	0.25412742930171517	0.8379874903702731	1.4142009601311838	0.3099716806333767	0.8637738314915294	1.423781202628533	0.2799062017531569	1.1303088480572887	1.428185197172415	0.10013611302789513	0.7395674394726792	0.5425050106122475	0.11206845722530812	0.8745760149140118	0.9535490740336812	0.08652430013343489	1.0278173031063929	1.3650518078513239	0.10760336824470046	0.8476898285901258	1.3960471277573712	0.049994702273016806	0.8637949778235446	1.3958963903639816	0.09470755157878279	1.0912960727371042	1.417795676075703	0.20603886241811994	0.5704974035291974	-0.030606119833564673	0.20898841590978404	0.4326313304414614	-0.26564337127174154	0.18862146945571673	0.3941269614795979	-0.11767145254316122	0.35632854597698166	0.5688654608486574	0.05741007273838569	0.41915692591156795	0.5797167067197369	0.3157040042560221	0.24727528207804683	0.509608920189373	0.4716381187869166	0.20114660107165225	0.5320728488754711	0.5769898140858181	0.18119730526943711	0.555994270411018	0.5845919175489893	0.1826613239889742	0.5507701156845064	0.5810846157034139	0.06258451661469552	0.6288353320361908	0.04400674929039046	0.014516886006515493	0.6147717978416337	0.2937666549346798	0.14555768156243581	0.4978785916301726	0.49009659572687214	0.23337623076736588	0.4684444386414405	0.5296220207230296	0.23469735351639423	0.46834094335759446	0.567364473403267	0.18749465479841843	0.549743602619661	0.5916381191477113
37	0.6166666666666667	0.31698029920034243	0.7235793008045609	0.5458520175278689	0.28133989403536763	0.8436157380658398	0.9572189541748723	0.30128207302664756	1.0046366151697166	1.3632286824484674	0.2527518334518682	0.8330415251526013	1.4136179222377279	0.30988466575794693	0.8633657012393723	1.4240597264989279	0.27994312153618306	1.130911062468575	1.4295534768147118	0.10132536047486923	0.7432612590095666	0.5438223746615161	0.11338685568389664	0.8710387734856515	0.9538943807293618	0.08652427568909835	1.0276496781420716	1.3650434136868688	0.10632581556371906	0.8470296969355314	1.3959246820570894	0.04994254661920989	0.8638038848699225	1.3959163381983966	0.09580734742369822	1.091776817091659	1.417449615208819	0.20826362393549963	0.5661883552441227	-0.030002700992618363	0.20896442236878504	0.43275252707771095	-0.264817823530515	0.18748638473040385	0.39360717984919824	-0.11839111715410441	0.3579982940797114	0.5698171671286998	0.05827051668134377	0.4239422875409625	0.5876587447633395	0.31742123076748063	0.24847539558230045	0.5087131552926211	0.4654761460061162	0.2012756047111485	0.5187433420442503	0.5704962412051797	0.17889221408831957	0.5465028926141039	0.5790446064990936	0.1805879173148316	0.5454173186631948	0.5759431606244217	0.06250016002005804	0.6286543239273221	0.043645414019876004	0.014627605890355487	0.614314806092804	0.2936695088946198	0.14360225705164198	0.4813249099411273	0.48701692144946096	0.2339178493703564	0.45751588812502236	0.5231643643175823	0.2360458129353071	0.46261329832347076	0.5607536297152119	0.18403882295591198	0.5449139764153086	0.5902620420392556
38	0.6333333333333333	0.31708128386849244	0.7290056597613277	0.5499644694795995	0.2826545275555418	0.8472523630094756	0.9567052440706416	0.3013031273346032	1.004597376036348	1.3631935328730818	0.2512098467296215	0.8278293686799434	1.4123450971247886	0.31012583205014255	0.8611490368950554	1.423319055056118	0.27996180989102587	1.1318845422610617	1.4319915050173908	0.10227942748898844	0.7483498417241393	0.546161778058573	0.11388198317167476	0.8689522374399967	0.953387614498196	0.08652587455201875	1.0275775240709044	1.364975569748742	0.10550820090665175	0.8450551603130529	1.3953455842911393	0.04992354573950056	0.8638457889608682	1.3959303279000876	0.09745287414389606	1.0925773478198046	1.4174199834117345	0.21046648729978995	0.5631424478568191	-0.02954905020639247	0.20898441682842808	0.4329220238054013	-0.26372254545957663	0.1870099088849211	0.39335281722554205	-0.11868935623123808	0.36093276936561797	0.5705805914729086	0.0586607167963296	0.42762464263897754	0.5922880986220966	0.3201372781867771	0.2500823838588412	0.5072408085983997	0.4602696901964336	0.1968870985571639	0.5067330421500084	0.5580233894415941	0.17689617498704274	0.5381403793802112	0.569625559694259	0.17793132526057087	0.5414689590112619	0.5690706486851387	0.06241162289782274	0.6282073917805253	0.042798689752583885	0.014870585782979309	0.6135629946583431	0.2927077796191403	0.13898240657483563	0.4689612410808644	0.4827817696766189	0.23141254011004292	0.4470059797677455	0.516314904636923	0.2343809188576991	0.45648466557423045	0.551485862493334	0.17648514176235885	0.5286408104809487	0.5874487113077853
